<mxfile host="65bd71144e">
    <diagram id="i4nOi7zlo9NLRjpyxxta" name="Page-1">
        <mxGraphModel dx="653" dy="339" grid="1" gridSize="10" guides="1" tooltips="1" connect="1" arrows="1" fold="1" page="1" pageScale="1" pageWidth="827" pageHeight="1169" math="0" shadow="0">
            <root>
                <mxCell id="0"/>
                <mxCell id="1" parent="0"/>
                <mxCell id="50" value="" style="group" parent="1" vertex="1" connectable="0">
                    <mxGeometry x="20" y="20" width="410" height="330" as="geometry"/>
                </mxCell>
                <mxCell id="37" value="" style="group" parent="50" vertex="1" connectable="0">
                    <mxGeometry x="240.65217391304347" width="133.69565217391303" height="151.25" as="geometry"/>
                </mxCell>
                <mxCell id="2" value="FillArray" style="ellipse;whiteSpace=wrap;html=1;" parent="37" vertex="1">
                    <mxGeometry x="8.91304347826087" width="106.95652173913044" height="45.83333333333333" as="geometry"/>
                </mxCell>
                <mxCell id="6" value="" style="edgeStyle=none;html=1;" parent="37" edge="1">
                    <mxGeometry relative="1" as="geometry">
                        <mxPoint x="62.391304347826086" y="123.75" as="sourcePoint"/>
                        <mxPoint x="62.39130434782606" y="151.25" as="targetPoint"/>
                    </mxGeometry>
                </mxCell>
                <mxCell id="4" value="" style="edgeStyle=none;html=1;" parent="37" source="2" edge="1">
                    <mxGeometry relative="1" as="geometry">
                        <mxPoint x="62.3478260869565" y="69" as="targetPoint"/>
                    </mxGeometry>
                </mxCell>
                <mxCell id="49" value="&lt;span&gt;string[ ] array&lt;br&gt;&lt;/span&gt;count = 0&lt;br&gt;&lt;span&gt;string[ ] newArray&lt;/span&gt;" style="rounded=0;whiteSpace=wrap;html=1;" parent="37" vertex="1">
                    <mxGeometry x="-4.456521739130435" y="73.33333333333333" width="133.69565217391303" height="55" as="geometry"/>
                </mxCell>
                <mxCell id="40" value="for (int i = 0; i &amp;lt; array.Length; i++)" style="shape=hexagon;perimeter=hexagonPerimeter2;whiteSpace=wrap;html=1;fixedSize=1;" parent="50" vertex="1">
                    <mxGeometry x="196.08695652173913" y="155.83333333333331" width="213.91304347826087" height="73.33333333333333" as="geometry"/>
                </mxCell>
                <mxCell id="45" style="edgeStyle=none;html=1;exitX=1;exitY=0.5;exitDx=0;exitDy=0;entryX=1;entryY=0.5;entryDx=0;entryDy=0;" parent="50" source="41" target="40" edge="1">
                    <mxGeometry relative="1" as="geometry">
                        <Array as="points">
                            <mxPoint x="410" y="293.3333333333333"/>
                        </Array>
                    </mxGeometry>
                </mxCell>
                <mxCell id="41" value="if (array[ i ].Length &amp;lt;= 3" style="rhombus;whiteSpace=wrap;html=1;" parent="50" vertex="1">
                    <mxGeometry x="213.91304347826087" y="256.66666666666663" width="178.26086956521738" height="73.33333333333333" as="geometry"/>
                </mxCell>
                <mxCell id="42" value="" style="edgeStyle=none;html=1;" parent="50" source="40" target="41" edge="1">
                    <mxGeometry relative="1" as="geometry"/>
                </mxCell>
                <mxCell id="43" value="Да" style="text;html=1;align=center;verticalAlign=middle;resizable=0;points=[];autosize=1;strokeColor=none;fillColor=none;" parent="50" vertex="1">
                    <mxGeometry x="191.6304347826087" y="265.8333333333333" width="30" height="20" as="geometry"/>
                </mxCell>
                <mxCell id="44" value="Нет" style="text;html=1;align=center;verticalAlign=middle;resizable=0;points=[];autosize=1;strokeColor=none;fillColor=none;" parent="50" vertex="1">
                    <mxGeometry x="365.4347826086956" y="265.8333333333333" width="40" height="20" as="geometry"/>
                </mxCell>
                <mxCell id="48" style="edgeStyle=none;html=1;exitX=0.5;exitY=0;exitDx=0;exitDy=0;entryX=0;entryY=0.5;entryDx=0;entryDy=0;" parent="50" source="46" target="40" edge="1">
                    <mxGeometry relative="1" as="geometry">
                        <Array as="points">
                            <mxPoint x="71.30434782608695" y="192.5"/>
                        </Array>
                    </mxGeometry>
                </mxCell>
                <mxCell id="46" value="newArray[ count ] == array [ i ]&lt;br&gt;count++" style="whiteSpace=wrap;html=1;" parent="50" vertex="1">
                    <mxGeometry x="-20" y="265.83" width="180" height="55" as="geometry"/>
                </mxCell>
                <mxCell id="47" value="" style="edgeStyle=none;html=1;" parent="50" source="41" target="46" edge="1">
                    <mxGeometry relative="1" as="geometry"/>
                </mxCell>
            </root>
        </mxGraphModel>
    </diagram>
</mxfile>